<?xml version="1.0" encoding="UTF-8"?>
<svg version="1.1" xmlns="http://www.w3.org/2000/svg" width="2000" height="2000">
<path d="M0 0 C660 0 1320 0 2000 0 C2000 660 2000 1320 2000 2000 C1340 2000 680 2000 0 2000 C0 1340 0 680 0 0 Z " fill="#FEFEFE" transform="translate(0,0)"/>
<path d="M0 0 C2.97816718 1.42432416 4.97931682 2.77903265 7.25 5.1875 C9.58085498 7.59180629 11.93810095 9.84466319 14.5 12 C18.71534375 15.62256103 22.59189144 19.55360949 26.5 23.5 C30.82327127 27.86533156 35.14676865 32.1061399 39.84765625 36.06640625 C43.68035061 39.50957087 47.2464681 43.22814967 50.86962891 46.88916016 C53.81048872 49.84893732 56.74397644 52.74711363 59.9375 55.4375 C64.74896362 59.50074465 69.08176655 64.05826003 73.50927734 68.52880859 C77.16830887 72.2097669 80.87731192 75.72158663 84.84765625 79.06640625 C88.67958233 82.50888068 92.24501916 86.22666402 95.86743164 89.88696289 C98.82956982 92.86817318 101.78716434 95.7857078 105 98.5 C108.88714761 101.78396954 112.42354417 105.38613844 116 109 C121.3120156 114.38538279 121.3120156 114.38538279 126.9375 119.4375 C131.74896362 123.50074465 136.08176655 128.05826003 140.50927734 132.52880859 C144.16830887 136.2097669 147.87731192 139.72158663 151.84765625 143.06640625 C155.68035061 146.50957087 159.2464681 150.22814967 162.86962891 153.88916016 C165.81048872 156.84893732 168.74397644 159.74711363 171.9375 162.4375 C176.74896362 166.50074465 181.08176655 171.05826003 185.50927734 175.52880859 C189.16830887 179.2097669 192.87731192 182.72158663 196.84765625 186.06640625 C200.68035061 189.50957087 204.2464681 193.22814967 207.86962891 196.88916016 C210.81048872 199.84893732 213.74397644 202.74711363 216.9375 205.4375 C221.74896362 209.50074465 226.08176655 214.05826003 230.50927734 218.52880859 C234.16830887 222.2097669 237.87731192 225.72158663 241.84765625 229.06640625 C245.67958233 232.50888068 249.24501916 236.22666402 252.86743164 239.88696289 C255.82956982 242.86817318 258.78716434 245.7857078 262 248.5 C265.88714761 251.78396954 269.42354417 255.38613844 273 259 C278.3120156 264.38538279 278.3120156 264.38538279 283.9375 269.4375 C288.74896362 273.50074465 293.08176655 278.05826003 297.50927734 282.52880859 C301.16830887 286.2097669 304.87731192 289.72158663 308.84765625 293.06640625 C312.68035061 296.50957087 316.2464681 300.22814967 319.86962891 303.88916016 C322.81048872 306.84893732 325.74397644 309.74711363 328.9375 312.4375 C333.74896362 316.50074465 338.08176655 321.05826003 342.50927734 325.52880859 C346.16830887 329.2097669 349.87731192 332.72158663 353.84765625 336.06640625 C357.68035061 339.50957087 361.2464681 343.22814967 364.86962891 346.88916016 C367.81048872 349.84893732 370.74397644 352.74711363 373.9375 355.4375 C378.74896362 359.50074465 383.08176655 364.05826003 387.50927734 368.52880859 C391.16830887 372.2097669 394.87731192 375.72158663 398.84765625 379.06640625 C402.67727747 382.50681007 406.24067264 386.22220686 409.86083984 389.88037109 C413.44481697 393.48748931 417.09578442 396.91933956 420.98046875 400.203125 C425.52584569 404.24736753 429.73486445 408.66430154 434 413 C429.6028106 419.31457475 424.56907007 424.64423227 419.0625 430 C414.06560883 434.88436735 409.22995801 439.79508459 404.67749023 445.09765625 C401.93089711 448.21240718 398.96613245 451.09626923 396 454 C390.61357955 459.31105805 390.61357955 459.31105805 385.5625 464.9375 C381.49925535 469.74896362 376.94173997 474.08176655 372.47119141 478.50927734 C368.7902331 482.16830887 365.27841337 485.87731192 361.93359375 489.84765625 C358.49111932 493.67958233 354.77333598 497.24501916 351.11303711 500.86743164 C348.13182682 503.82956982 345.2142922 506.78716434 342.5 510 C338.64811224 514.55937735 334.35187792 518.67246864 330.11328125 522.8671875 C327.13199023 525.82940843 324.21436684 528.78707598 321.5 532 C317.64811224 536.55937735 313.35187792 540.67246864 309.11328125 544.8671875 C306.13199023 547.82940843 303.21436684 550.78707598 300.5 554 C297.21603046 557.88714761 293.61386156 561.42354417 290 565 C284.61461721 570.3120156 284.61461721 570.3120156 279.5625 575.9375 C275.49925535 580.74896362 270.94173997 585.08176655 266.47119141 589.50927734 C262.7902331 593.16830887 259.27841337 596.87731192 255.93359375 600.84765625 C252.49111932 604.67958233 248.77333598 608.24501916 245.11303711 611.86743164 C242.13182682 614.82956982 239.2142922 617.78716434 236.5 621 C232.64811224 625.55937735 228.35187792 629.67246864 224.11328125 633.8671875 C221.13199023 636.82940843 218.21436684 639.78707598 215.5 643 C211.64811224 647.55937735 207.35187792 651.67246864 203.11328125 655.8671875 C200.13199023 658.82940843 197.21436684 661.78707598 194.5 665 C191.21603046 668.88714761 187.61386156 672.42354417 184 676 C178.61461721 681.3120156 178.61461721 681.3120156 173.5625 686.9375 C169.49925535 691.74896362 164.94173997 696.08176655 160.47119141 700.50927734 C156.7902331 704.16830887 153.27841337 707.87731192 149.93359375 711.84765625 C146.49111932 715.67958233 142.77333598 719.24501916 139.11303711 722.86743164 C136.13182682 725.82956982 133.2142922 728.78716434 130.5 732 C126.64811224 736.55937735 122.35187792 740.67246864 118.11328125 744.8671875 C115.13199023 747.82940843 112.21436684 750.78707598 109.5 754 C106.21603046 757.88714761 102.61386156 761.42354417 99 765 C93.61461721 770.3120156 93.61461721 770.3120156 88.5625 775.9375 C84.49925535 780.74896362 79.94173997 785.08176655 75.47119141 789.50927734 C71.7902331 793.16830887 68.27841337 796.87731192 64.93359375 800.84765625 C61.49111932 804.67958233 57.77333598 808.24501916 54.11303711 811.86743164 C51.13182682 814.82956982 48.2142922 817.78716434 45.5 821 C41.65743141 825.54834649 37.37275285 829.65221692 33.14404297 833.83642578 C28.89376044 838.05916124 24.81827674 842.37787553 21 847 C18.08165783 845.68516427 16.05079071 844.28366724 13.828125 841.98828125 C13.25070557 841.39926025 12.67328613 840.81023926 12.07836914 840.20336914 C11.47500732 839.57938232 10.87164551 838.95539551 10.25 838.3125 C4.82806996 832.75536663 4.82806996 832.75536663 -0.9375 827.5625 C-5.74896362 823.49925535 -10.08176655 818.94173997 -14.50927734 814.47119141 C-18.16830887 810.7902331 -21.87731192 807.27841337 -25.84765625 803.93359375 C-29.68035061 800.49042913 -33.2464681 796.77185033 -36.86962891 793.11083984 C-39.81048872 790.15106268 -42.74397644 787.25288637 -45.9375 784.5625 C-50.74896362 780.49925535 -55.08176655 775.94173997 -59.50927734 771.47119141 C-63.16830887 767.7902331 -66.87731192 764.27841337 -70.84765625 760.93359375 C-74.68035061 757.49042913 -78.2464681 753.77185033 -81.86962891 750.11083984 C-84.81048872 747.15106268 -87.74397644 744.25288637 -90.9375 741.5625 C-95.74896362 737.49925535 -100.08176655 732.94173997 -104.50927734 728.47119141 C-108.16830887 724.7902331 -111.87731192 721.27841337 -115.84765625 717.93359375 C-119.67958233 714.49111932 -123.24501916 710.77333598 -126.86743164 707.11303711 C-129.82956982 704.13182682 -132.78716434 701.2142922 -136 698.5 C-139.88714761 695.21603046 -143.42354417 691.61386156 -147 688 C-152.3120156 682.61461721 -152.3120156 682.61461721 -157.9375 677.5625 C-162.74896362 673.49925535 -167.08176655 668.94173997 -171.50927734 664.47119141 C-175.16830887 660.7902331 -178.87731192 657.27841337 -182.84765625 653.93359375 C-186.68035061 650.49042913 -190.2464681 646.77185033 -193.86962891 643.11083984 C-196.81048872 640.15106268 -199.74397644 637.25288637 -202.9375 634.5625 C-207.74896362 630.49925535 -212.08176655 625.94173997 -216.50927734 621.47119141 C-220.16830887 617.7902331 -223.87731192 614.27841337 -227.84765625 610.93359375 C-231.68035061 607.49042913 -235.2464681 603.77185033 -238.86962891 600.11083984 C-241.81048872 597.15106268 -244.74397644 594.25288637 -247.9375 591.5625 C-252.74896362 587.49925535 -257.08176655 582.94173997 -261.50927734 578.47119141 C-265.16830887 574.7902331 -268.87731192 571.27841337 -272.84765625 567.93359375 C-276.67958233 564.49111932 -280.24501916 560.77333598 -283.86743164 557.11303711 C-286.82956982 554.13182682 -289.78716434 551.2142922 -293 548.5 C-296.88714761 545.21603046 -300.42354417 541.61386156 -304 538 C-309.3120156 532.61461721 -309.3120156 532.61461721 -314.9375 527.5625 C-319.74896362 523.49925535 -324.08176655 518.94173997 -328.50927734 514.47119141 C-332.16830887 510.7902331 -335.87731192 507.27841337 -339.84765625 503.93359375 C-343.68035061 500.49042913 -347.2464681 496.77185033 -350.86962891 493.11083984 C-353.81048872 490.15106268 -356.74397644 487.25288637 -359.9375 484.5625 C-364.74896362 480.49925535 -369.08176655 475.94173997 -373.50927734 471.47119141 C-377.16830887 467.7902331 -380.87731192 464.27841337 -384.84765625 460.93359375 C-388.67189928 457.49802151 -392.23053245 453.78819455 -395.84545898 450.13500977 C-399.58514736 446.37101469 -403.39568011 442.76465957 -407.4453125 439.33203125 C-409.40228667 437.65532725 -411.21594807 435.85838743 -413 434 C-411.66000502 430.993182 -410.20154709 429.00237391 -407.8125 426.75 C-405.40819371 424.41914502 -403.15533681 422.06189905 -401 419.5 C-397.37743897 415.28465625 -393.44639051 411.40810856 -389.5 407.5 C-385.13466844 403.17672873 -380.8938601 398.85323135 -376.93359375 394.15234375 C-373.49111932 390.32041767 -369.77333598 386.75498084 -366.11303711 383.13256836 C-363.13182682 380.17043018 -360.2142922 377.21283566 -357.5 374 C-353.64811224 369.44062265 -349.35187792 365.32753136 -345.11328125 361.1328125 C-342.13199023 358.17059157 -339.21436684 355.21292402 -336.5 352 C-332.64811224 347.44062265 -328.35187792 343.32753136 -324.11328125 339.1328125 C-321.13199023 336.17059157 -318.21436684 333.21292402 -315.5 330 C-312.21603046 326.11285239 -308.61386156 322.57645583 -305 319 C-299.61461721 313.6879844 -299.61461721 313.6879844 -294.5625 308.0625 C-290.49925535 303.25103638 -285.94173997 298.91823345 -281.47119141 294.49072266 C-277.7902331 290.83169113 -274.27841337 287.12268808 -270.93359375 283.15234375 C-267.49111932 279.32041767 -263.77333598 275.75498084 -260.11303711 272.13256836 C-257.13182682 269.17043018 -254.2142922 266.21283566 -251.5 263 C-247.64811224 258.44062265 -243.35187792 254.32753136 -239.11328125 250.1328125 C-236.13199023 247.17059157 -233.21436684 244.21292402 -230.5 241 C-227.21603046 237.11285239 -223.61386156 233.57645583 -220 230 C-214.61461721 224.6879844 -214.61461721 224.6879844 -209.5625 219.0625 C-205.49925535 214.25103638 -200.94173997 209.91823345 -196.47119141 205.49072266 C-192.7902331 201.83169113 -189.27841337 198.12268808 -185.93359375 194.15234375 C-182.49111932 190.32041767 -178.77333598 186.75498084 -175.11303711 183.13256836 C-172.13182682 180.17043018 -169.2142922 177.21283566 -166.5 174 C-162.64811224 169.44062265 -158.35187792 165.32753136 -154.11328125 161.1328125 C-151.13199023 158.17059157 -148.21436684 155.21292402 -145.5 152 C-141.64811224 147.44062265 -137.35187792 143.32753136 -133.11328125 139.1328125 C-130.13199023 136.17059157 -127.21436684 133.21292402 -124.5 130 C-121.21603046 126.11285239 -117.61386156 122.57645583 -114 119 C-108.61461721 113.6879844 -108.61461721 113.6879844 -103.5625 108.0625 C-99.49925535 103.25103638 -94.94173997 98.91823345 -90.47119141 94.49072266 C-86.7902331 90.83169113 -83.27841337 87.12268808 -79.93359375 83.15234375 C-76.49111932 79.32041767 -72.77333598 75.75498084 -69.11303711 72.13256836 C-66.13182682 69.17043018 -63.2142922 66.21283566 -60.5 63 C-56.64811224 58.44062265 -52.35187792 54.32753136 -48.11328125 50.1328125 C-45.13199023 47.17059157 -42.21436684 44.21292402 -39.5 41 C-36.21603046 37.11285239 -32.61386156 33.57645583 -29 30 C-23.61461721 24.6879844 -23.61461721 24.6879844 -18.5625 19.0625 C-16.2135652 16.33646348 -13.79318939 13.72905384 -11.25 11.18359375 C-10.56478271 10.4970874 -9.87956543 9.81058105 -9.17358398 9.10327148 C-6.12175033 6.06273177 -3.06534616 3.02691848 0 0 Z " fill="#006635" transform="translate(552,692)"/>
<path d="M0 0 C9.57252743 8.04962534 18.63800869 16.55619024 27.42651367 25.44580078 C30.18174448 28.22132413 32.95006585 30.90869114 35.9375 33.4375 C39.84270003 36.74572678 43.40280684 40.3651399 47 44 C52.31201452 49.38538412 52.31201452 49.38538412 57.9375 54.4375 C62.74896362 58.50074465 67.08176655 63.05826003 71.50927734 67.52880859 C75.16830887 71.2097669 78.87731192 74.72158663 82.84765625 78.06640625 C86.67958233 81.50888068 90.24501916 85.22666402 93.86743164 88.88696289 C96.82956982 91.86817318 99.78716434 94.7857078 103 97.5 C106.88714761 100.78396954 110.42354417 104.38613844 114 108 C119.3120156 113.38538279 119.3120156 113.38538279 124.9375 118.4375 C129.74896362 122.50074465 134.08176655 127.05826003 138.50927734 131.52880859 C142.16830887 135.2097669 145.87731192 138.72158663 149.84765625 142.06640625 C153.68035061 145.50957087 157.2464681 149.22814967 160.86962891 152.88916016 C163.81048872 155.84893732 166.74397644 158.74711363 169.9375 161.4375 C174.74896362 165.50074465 179.08176655 170.05826003 183.50927734 174.52880859 C187.16830887 178.2097669 190.87731192 181.72158663 194.84765625 185.06640625 C198.68035061 188.50957087 202.2464681 192.22814967 205.86962891 195.88916016 C208.81048872 198.84893732 211.74397644 201.74711363 214.9375 204.4375 C219.74896362 208.50074465 224.08176655 213.05826003 228.50927734 217.52880859 C232.16830887 221.2097669 235.87731192 224.72158663 239.84765625 228.06640625 C243.67958233 231.50888068 247.24501916 235.22666402 250.86743164 238.88696289 C253.82956982 241.86817318 256.78716434 244.7857078 260 247.5 C263.88714761 250.78396954 267.42354417 254.38613844 271 258 C276.3120156 263.38538279 276.3120156 263.38538279 281.9375 268.4375 C286.74896362 272.50074465 291.08176655 277.05826003 295.50927734 281.52880859 C299.16830887 285.2097669 302.87731192 288.72158663 306.84765625 292.06640625 C310.68035061 295.50957087 314.2464681 299.22814967 317.86962891 302.88916016 C320.81048872 305.84893732 323.74397644 308.74711363 326.9375 311.4375 C331.74896362 315.50074465 336.08176655 320.05826003 340.50927734 324.52880859 C344.16830887 328.2097669 347.87731192 331.72158663 351.84765625 335.06640625 C355.68035061 338.50957087 359.2464681 342.22814967 362.86962891 345.88916016 C365.81048872 348.84893732 368.74397644 351.74711363 371.9375 354.4375 C376.74896362 358.50074465 381.08176655 363.05826003 385.50927734 367.52880859 C389.16830887 371.2097669 392.87731192 374.72158663 396.84765625 378.06640625 C400.67881405 381.50819048 404.24357028 385.22517834 407.86523438 388.88476562 C411.40485739 392.44720038 415.01008058 395.82894662 418.84765625 399.0703125 C424.12440264 403.80118857 429.02459387 408.95633372 434 414 C429.58395768 419.23078501 425.01270163 424.27381493 420.3125 429.25 C419.61133057 429.99435303 418.91016113 430.73870605 418.18774414 431.50561523 C413.31412721 436.6603702 408.33877848 441.68959704 403.29296875 446.67578125 C401.35117445 448.64403953 399.53493075 450.64135385 397.75 452.75 C394.22368409 456.8925653 390.36238621 460.67491801 386.5 464.5 C382.13468008 468.82328 377.89386027 473.14676846 373.93359375 477.84765625 C370.49042913 481.68035061 366.77185033 485.2464681 363.11083984 488.86962891 C360.15106268 491.81048872 357.25288637 494.74397644 354.5625 497.9375 C350.49925535 502.74896362 345.94173997 507.08176655 341.47119141 511.50927734 C337.7902331 515.16830887 334.27841337 518.87731192 330.93359375 522.84765625 C327.49111932 526.67958233 323.77333598 530.24501916 320.11303711 533.86743164 C317.13182682 536.82956982 314.2142922 539.78716434 311.5 543 C308.21603046 546.88714761 304.61386156 550.42354417 301 554 C295.61461721 559.3120156 295.61461721 559.3120156 290.5625 564.9375 C286.49925535 569.74896362 281.94173997 574.08176655 277.47119141 578.50927734 C273.7902331 582.16830887 270.27841337 585.87731192 266.93359375 589.84765625 C263.49042913 593.68035061 259.77185033 597.2464681 256.11083984 600.86962891 C253.15106268 603.81048872 250.25288637 606.74397644 247.5625 609.9375 C243.49925535 614.74896362 238.94173997 619.08176655 234.47119141 623.50927734 C230.7902331 627.16830887 227.27841337 630.87731192 223.93359375 634.84765625 C220.49111932 638.67958233 216.77333598 642.24501916 213.11303711 645.86743164 C210.13182682 648.82956982 207.2142922 651.78716434 204.5 655 C201.21603046 658.88714761 197.61386156 662.42354417 194 666 C188.61461721 671.3120156 188.61461721 671.3120156 183.5625 676.9375 C179.49925535 681.74896362 174.94173997 686.08176655 170.47119141 690.50927734 C166.7902331 694.16830887 163.27841337 697.87731192 159.93359375 701.84765625 C156.49042913 705.68035061 152.77185033 709.2464681 149.11083984 712.86962891 C146.15106268 715.81048872 143.25288637 718.74397644 140.5625 721.9375 C136.49925535 726.74896362 131.94173997 731.08176655 127.47119141 735.50927734 C123.7902331 739.16830887 120.27841337 742.87731192 116.93359375 746.84765625 C113.49042913 750.68035061 109.77185033 754.2464681 106.11083984 757.86962891 C103.15106268 760.81048872 100.25288637 763.74397644 97.5625 766.9375 C93.49925535 771.74896362 88.94173997 776.08176655 84.47119141 780.50927734 C80.7902331 784.16830887 77.27841337 787.87731192 73.93359375 791.84765625 C70.49042913 795.68035061 66.77185033 799.2464681 63.11083984 802.86962891 C60.15106268 805.81048872 57.25288637 808.74397644 54.5625 811.9375 C50.50324381 816.7442407 45.95067801 821.07306887 41.484375 825.49609375 C37.67927629 829.27840743 34.02449029 833.11274587 30.5625 837.21484375 C27.55633961 840.649382 24.26387436 843.812424 21 847 C16.95301519 845.64923065 14.59638638 843.94508187 11.63671875 840.89453125 C10.83169922 840.07533203 10.02667969 839.25613281 9.19726562 838.41210938 C8.36904297 837.55423828 7.54082031 836.69636719 6.6875 835.8125 C1.56763237 830.5552405 -3.5463102 825.42545904 -9.12182617 820.65112305 C-12.23176605 817.91714107 -15.10468478 814.95753604 -18 812 C-23.31105805 806.61357955 -23.31105805 806.61357955 -28.9375 801.5625 C-33.74896362 797.49925535 -38.08176655 792.94173997 -42.50927734 788.47119141 C-46.16830887 784.7902331 -49.87731192 781.27841337 -53.84765625 777.93359375 C-57.67958233 774.49111932 -61.24501916 770.77333598 -64.86743164 767.11303711 C-67.82956982 764.13182682 -70.78716434 761.2142922 -74 758.5 C-78.55937735 754.64811224 -82.67246864 750.35187792 -86.8671875 746.11328125 C-89.82940843 743.13199023 -92.78707598 740.21436684 -96 737.5 C-100.55937735 733.64811224 -104.67246864 729.35187792 -108.8671875 725.11328125 C-111.82940843 722.13199023 -114.78707598 719.21436684 -118 716.5 C-122.55937735 712.64811224 -126.67246864 708.35187792 -130.8671875 704.11328125 C-133.82940843 701.13199023 -136.78707598 698.21436684 -140 695.5 C-143.88714761 692.21603046 -147.42354417 688.61386156 -151 685 C-156.3120156 679.61461721 -156.3120156 679.61461721 -161.9375 674.5625 C-166.74896362 670.49925535 -171.08176655 665.94173997 -175.50927734 661.47119141 C-179.16830887 657.7902331 -182.87731192 654.27841337 -186.84765625 650.93359375 C-190.67958233 647.49111932 -194.24501916 643.77333598 -197.86743164 640.11303711 C-200.82956982 637.13182682 -203.78716434 634.2142922 -207 631.5 C-211.55937735 627.64811224 -215.67246864 623.35187792 -219.8671875 619.11328125 C-222.82940843 616.13199023 -225.78707598 613.21436684 -229 610.5 C-232.88714761 607.21603046 -236.42354417 603.61386156 -240 600 C-245.3120156 594.61461721 -245.3120156 594.61461721 -250.9375 589.5625 C-255.74896362 585.49925535 -260.08176655 580.94173997 -264.50927734 576.47119141 C-268.16830887 572.7902331 -271.87731192 569.27841337 -275.84765625 565.93359375 C-279.67958233 562.49111932 -283.24501916 558.77333598 -286.86743164 555.11303711 C-289.82956982 552.13182682 -292.78716434 549.2142922 -296 546.5 C-300.55937735 542.64811224 -304.67246864 538.35187792 -308.8671875 534.11328125 C-311.82940843 531.13199023 -314.78707598 528.21436684 -318 525.5 C-321.88714761 522.21603046 -325.42354417 518.61386156 -329 515 C-334.3120156 509.61461721 -334.3120156 509.61461721 -339.9375 504.5625 C-344.74896362 500.49925535 -349.08176655 495.94173997 -353.50927734 491.47119141 C-357.16830887 487.7902331 -360.87731192 484.27841337 -364.84765625 480.93359375 C-368.67958233 477.49111932 -372.24501916 473.77333598 -375.86743164 470.11303711 C-378.82956982 467.13182682 -381.78716434 464.2142922 -385 461.5 C-389.55045232 457.65565235 -393.65953882 453.37088097 -397.84082031 449.13525391 C-401.58606424 445.35851173 -405.39779936 441.76698747 -409.546875 438.4296875 C-411.22435895 436.77925974 -412.06150056 435.14382714 -413 433 C-408.6229506 427.70146652 -403.88030064 422.82894932 -399 418 C-393.61459868 412.68799946 -393.61459868 412.68799946 -388.5625 407.0625 C-384.49925535 402.25103638 -379.94173997 397.91823345 -375.47119141 393.49072266 C-371.7902331 389.83169113 -368.27841337 386.12268808 -364.93359375 382.15234375 C-361.49111932 378.32041767 -357.77333598 374.75498084 -354.11303711 371.13256836 C-351.13182682 368.17043018 -348.2142922 365.21283566 -345.5 362 C-341.64811224 357.44062265 -337.35187792 353.32753136 -333.11328125 349.1328125 C-330.13199023 346.17059157 -327.21436684 343.21292402 -324.5 340 C-321.21603046 336.11285239 -317.61386156 332.57645583 -314 329 C-308.61461721 323.6879844 -308.61461721 323.6879844 -303.5625 318.0625 C-299.49925535 313.25103638 -294.94173997 308.91823345 -290.47119141 304.49072266 C-286.7902331 300.83169113 -283.27841337 297.12268808 -279.93359375 293.15234375 C-276.49111932 289.32041767 -272.77333598 285.75498084 -269.11303711 282.13256836 C-266.13182682 279.17043018 -263.2142922 276.21283566 -260.5 273 C-256.64811224 268.44062265 -252.35187792 264.32753136 -248.11328125 260.1328125 C-245.13199023 257.17059157 -242.21436684 254.21292402 -239.5 251 C-235.64811224 246.44062265 -231.35187792 242.32753136 -227.11328125 238.1328125 C-224.13199023 235.17059157 -221.21436684 232.21292402 -218.5 229 C-215.21603046 225.11285239 -211.61386156 221.57645583 -208 218 C-202.61461721 212.6879844 -202.61461721 212.6879844 -197.5625 207.0625 C-193.49925535 202.25103638 -188.94173997 197.91823345 -184.47119141 193.49072266 C-180.7902331 189.83169113 -177.27841337 186.12268808 -173.93359375 182.15234375 C-170.49111932 178.32041767 -166.77333598 174.75498084 -163.11303711 171.13256836 C-160.13182682 168.17043018 -157.2142922 165.21283566 -154.5 162 C-150.64811224 157.44062265 -146.35187792 153.32753136 -142.11328125 149.1328125 C-139.13199023 146.17059157 -136.21436684 143.21292402 -133.5 140 C-130.21603046 136.11285239 -126.61386156 132.57645583 -123 129 C-117.61461721 123.6879844 -117.61461721 123.6879844 -112.5625 118.0625 C-108.49925535 113.25103638 -103.94173997 108.91823345 -99.47119141 104.49072266 C-95.7902331 100.83169113 -92.27841337 97.12268808 -88.93359375 93.15234375 C-85.49111932 89.32041767 -81.77333598 85.75498084 -78.11303711 82.13256836 C-75.13182682 79.17043018 -72.2142922 76.21283566 -69.5 73 C-65.64811224 68.44062265 -61.35187792 64.32753136 -57.11328125 60.1328125 C-54.13199023 57.17059157 -51.21436684 54.21292402 -48.5 51 C-44.64877784 46.44141051 -40.35336869 42.32897829 -36.11547852 38.13500977 C-32.54301767 34.58542182 -29.15395599 30.96842121 -25.90234375 27.12109375 C-22.68119602 23.5295471 -19.20713872 20.18778341 -15.77734375 16.796875 C-12.14413813 13.18901733 -8.68461589 9.49318611 -5.3671875 5.58984375 C-3.67616069 3.62342114 -1.87038091 1.79556567 0 0 Z " fill="#006635" transform="translate(1420,673)"/>
<path d="M0 0 C0.66 0 1.32 0 2 0 C2 0.66 2 1.32 2 2 C2.8647998 2.37475464 2.8647998 2.37475464 3.74707031 2.75708008 C6.31463351 4.17358032 7.99989768 5.78921967 10.046875 7.88671875 C10.81 8.66080078 11.573125 9.43488281 12.359375 10.23242188 C13.14828125 11.04259766 13.9371875 11.85277344 14.75 12.6875 C19.71035646 17.75946448 24.69029469 22.67954729 30.07519531 27.30004883 C33.37156927 30.21134409 36.42226051 33.36121179 39.5 36.5 C43.82091697 40.86747515 48.14700523 45.1063392 52.84765625 49.06640625 C56.67958233 52.50888068 60.24501916 56.22666402 63.86743164 59.88696289 C66.82956982 62.86817318 69.78716434 65.7857078 73 68.5 C77.55937735 72.35188776 81.67246864 76.64812208 85.8671875 80.88671875 C88.82940843 83.86800977 91.78707598 86.78563316 95 89.5 C99.55937735 93.35188776 103.67246864 97.64812208 107.8671875 101.88671875 C110.82940843 104.86800977 113.78707598 107.78563316 117 110.5 C121.55937735 114.35188776 125.67246864 118.64812208 129.8671875 122.88671875 C132.82940843 125.86800977 135.78707598 128.78563316 139 131.5 C143.55937735 135.35188776 147.67246864 139.64812208 151.8671875 143.88671875 C154.82940843 146.86800977 157.78707598 149.78563316 161 152.5 C164.88714761 155.78396954 168.42354417 159.38613844 172 163 C177.3120156 168.38538279 177.3120156 168.38538279 182.9375 173.4375 C187.74896362 177.50074465 192.08176655 182.05826003 196.50927734 186.52880859 C200.16830887 190.2097669 203.87731192 193.72158663 207.84765625 197.06640625 C211.67958233 200.50888068 215.24501916 204.22666402 218.86743164 207.88696289 C221.82956982 210.86817318 224.78716434 213.7857078 228 216.5 C232.55937735 220.35188776 236.67246864 224.64812208 240.8671875 228.88671875 C243.82940843 231.86800977 246.78707598 234.78563316 250 237.5 C254.55937735 241.35188776 258.67246864 245.64812208 262.8671875 249.88671875 C265.82940843 252.86800977 268.78707598 255.78563316 272 258.5 C276.55937735 262.35188776 280.67246864 266.64812208 284.8671875 270.88671875 C287.82940843 273.86800977 290.78707598 276.78563316 294 279.5 C297.88714761 282.78396954 301.42354417 286.38613844 305 290 C310.3120156 295.38538279 310.3120156 295.38538279 315.9375 300.4375 C320.74896362 304.50074465 325.08176655 309.05826003 329.50927734 313.52880859 C333.16830887 317.2097669 336.87731192 320.72158663 340.84765625 324.06640625 C344.67958233 327.50888068 348.24501916 331.22666402 351.86743164 334.88696289 C354.82956982 337.86817318 357.78716434 340.7857078 361 343.5 C365.55937735 347.35188776 369.67246864 351.64812208 373.8671875 355.88671875 C376.82940843 358.86800977 379.78707598 361.78563316 383 364.5 C387.55937735 368.35188776 391.67246864 372.64812208 395.8671875 376.88671875 C398.82940843 379.86800977 401.78707598 382.78563316 405 385.5 C409.5507104 389.34456568 413.65655561 393.63172112 417.84301758 397.86254883 C421.583355 401.62721695 425.38365182 405.2514502 429.44921875 408.66796875 C431.04796055 410.04119534 432.52812851 411.49255458 434 413 C432.58261511 416.25207092 430.87473588 418.31361067 428.3125 420.75 C425.70286927 423.28985451 423.22229863 425.84168915 420.875 428.625 C417.447192 432.6214766 413.7396614 436.29931878 410 440 C404.61460927 445.31200915 404.61460927 445.31200915 399.5625 450.9375 C395.49925535 455.74896362 390.94173997 460.08176655 386.47119141 464.50927734 C382.7902331 468.16830887 379.27841337 471.87731192 375.93359375 475.84765625 C372.49111932 479.67958233 368.77333598 483.24501916 365.11303711 486.86743164 C362.13182682 489.82956982 359.2142922 492.78716434 356.5 496 C352.64811224 500.55937735 348.35187792 504.67246864 344.11328125 508.8671875 C341.13199023 511.82940843 338.21436684 514.78707598 335.5 518 C331.64811224 522.55937735 327.35187792 526.67246864 323.11328125 530.8671875 C320.13199023 533.82940843 317.21436684 536.78707598 314.5 540 C311.21603046 543.88714761 307.61386156 547.42354417 304 551 C298.61461721 556.3120156 298.61461721 556.3120156 293.5625 561.9375 C289.49925535 566.74896362 284.94173997 571.08176655 280.47119141 575.50927734 C276.7902331 579.16830887 273.27841337 582.87731192 269.93359375 586.84765625 C266.49111932 590.67958233 262.77333598 594.24501916 259.11303711 597.86743164 C256.13182682 600.82956982 253.2142922 603.78716434 250.5 607 C246.64811224 611.55937735 242.35187792 615.67246864 238.11328125 619.8671875 C235.13199023 622.82940843 232.21436684 625.78707598 229.5 629 C225.64811224 633.55937735 221.35187792 637.67246864 217.11328125 641.8671875 C214.13199023 644.82940843 211.21436684 647.78707598 208.5 651 C205.21603046 654.88714761 201.61386156 658.42354417 198 662 C192.61461721 667.3120156 192.61461721 667.3120156 187.5625 672.9375 C183.49925535 677.74896362 178.94173997 682.08176655 174.47119141 686.50927734 C170.7902331 690.16830887 167.27841337 693.87731192 163.93359375 697.84765625 C160.49111932 701.67958233 156.77333598 705.24501916 153.11303711 708.86743164 C150.13182682 711.82956982 147.2142922 714.78716434 144.5 718 C140.64811224 722.55937735 136.35187792 726.67246864 132.11328125 730.8671875 C129.13199023 733.82940843 126.21436684 736.78707598 123.5 740 C120.21603046 743.88714761 116.61386156 747.42354417 113 751 C107.61461721 756.3120156 107.61461721 756.3120156 102.5625 761.9375 C98.49925535 766.74896362 93.94173997 771.08176655 89.47119141 775.50927734 C85.7902331 779.16830887 82.27841337 782.87731192 78.93359375 786.84765625 C75.49111932 790.67958233 71.77333598 794.24501916 68.11303711 797.86743164 C65.13182682 800.82956982 62.2142922 803.78716434 59.5 807 C55.64811224 811.55937735 51.35187792 815.67246864 47.11328125 819.8671875 C43.5730818 823.38474175 40.21634298 826.96713663 36.99609375 830.78125 C31.92066356 836.42282407 26.39794754 841.66943322 21 847 C17.93915332 845.62413928 15.7423607 844.03225579 13.3125 841.7265625 C12.61954834 841.07228271 11.92659668 840.41800293 11.21264648 839.74389648 C10.48247314 839.04466064 9.7522998 838.3454248 9 837.625 C7.86703491 836.55004272 7.86703491 836.55004272 6.71118164 835.45336914 C1.71481349 830.69449414 -3.19019553 825.85333968 -8.03759766 820.94335938 C-10.56721224 818.39186988 -13.13556011 815.94919847 -15.875 813.625 C-19.79832356 810.29263731 -23.38208423 806.65584439 -27 803 C-32.31201345 797.61461456 -32.31201345 797.61461456 -37.9375 792.5625 C-42.74896362 788.49925535 -47.08176655 783.94173997 -51.50927734 779.47119141 C-55.16830887 775.7902331 -58.87731192 772.27841337 -62.84765625 768.93359375 C-66.68035061 765.49042913 -70.2464681 761.77185033 -73.86962891 758.11083984 C-76.81048872 755.15106268 -79.74397644 752.25288637 -82.9375 749.5625 C-87.74896362 745.49925535 -92.08176655 740.94173997 -96.50927734 736.47119141 C-100.16830887 732.7902331 -103.87731192 729.27841337 -107.84765625 725.93359375 C-111.68035061 722.49042913 -115.2464681 718.77185033 -118.86962891 715.11083984 C-121.81048872 712.15106268 -124.74397644 709.25288637 -127.9375 706.5625 C-132.74896362 702.49925535 -137.08176655 697.94173997 -141.50927734 693.47119141 C-145.16830887 689.7902331 -148.87731192 686.27841337 -152.84765625 682.93359375 C-156.67958233 679.49111932 -160.24501916 675.77333598 -163.86743164 672.11303711 C-166.82956982 669.13182682 -169.78716434 666.2142922 -173 663.5 C-176.88714761 660.21603046 -180.42354417 656.61386156 -184 653 C-189.3120156 647.61461721 -189.3120156 647.61461721 -194.9375 642.5625 C-199.74896362 638.49925535 -204.08176655 633.94173997 -208.50927734 629.47119141 C-212.16830887 625.7902331 -215.87731192 622.27841337 -219.84765625 618.93359375 C-223.68035061 615.49042913 -227.2464681 611.77185033 -230.86962891 608.11083984 C-233.81048872 605.15106268 -236.74397644 602.25288637 -239.9375 599.5625 C-244.74896362 595.49925535 -249.08176655 590.94173997 -253.50927734 586.47119141 C-257.16830887 582.7902331 -260.87731192 579.27841337 -264.84765625 575.93359375 C-268.68035061 572.49042913 -272.2464681 568.77185033 -275.86962891 565.11083984 C-278.81048872 562.15106268 -281.74397644 559.25288637 -284.9375 556.5625 C-289.74896362 552.49925535 -294.08176655 547.94173997 -298.50927734 543.47119141 C-302.16830887 539.7902331 -305.87731192 536.27841337 -309.84765625 532.93359375 C-313.67958233 529.49111932 -317.24501916 525.77333598 -320.86743164 522.11303711 C-323.82956982 519.13182682 -326.78716434 516.2142922 -330 513.5 C-333.88714761 510.21603046 -337.42354417 506.61386156 -341 503 C-346.3120156 497.61461721 -346.3120156 497.61461721 -351.9375 492.5625 C-356.74896362 488.49925535 -361.08176655 483.94173997 -365.50927734 479.47119141 C-369.16830887 475.7902331 -372.87731192 472.27841337 -376.84765625 468.93359375 C-380.67804576 465.49249972 -384.24212144 461.77630738 -387.86303711 458.11743164 C-391.42482908 454.53266345 -395.05293352 451.12585093 -398.9140625 447.86328125 C-403.8254268 443.4761637 -408.37973389 438.6895701 -413 434 C-408.6028106 427.68542525 -403.56907007 422.35576773 -398.0625 417 C-393.06560883 412.11563265 -388.22995801 407.20491541 -383.67749023 401.90234375 C-380.93089711 398.78759282 -377.96613245 395.90373077 -375 393 C-369.61357955 387.68894195 -369.61357955 387.68894195 -364.5625 382.0625 C-360.49925535 377.25103638 -355.94173997 372.91823345 -351.47119141 368.49072266 C-347.7902331 364.83169113 -344.27841337 361.12268808 -340.93359375 357.15234375 C-337.49042913 353.31964939 -333.77185033 349.7535319 -330.11083984 346.13037109 C-327.15106268 343.18951128 -324.25288637 340.25602356 -321.5625 337.0625 C-317.49925535 332.25103638 -312.94173997 327.91823345 -308.47119141 323.49072266 C-304.7902331 319.83169113 -301.27841337 316.12268808 -297.93359375 312.15234375 C-294.49042913 308.31964939 -290.77185033 304.7535319 -287.11083984 301.13037109 C-284.15106268 298.18951128 -281.25288637 295.25602356 -278.5625 292.0625 C-274.49925535 287.25103638 -269.94173997 282.91823345 -265.47119141 278.49072266 C-261.7902331 274.83169113 -258.27841337 271.12268808 -254.93359375 267.15234375 C-251.49042913 263.31964939 -247.77185033 259.7535319 -244.11083984 256.13037109 C-241.15106268 253.18951128 -238.25288637 250.25602356 -235.5625 247.0625 C-231.49925535 242.25103638 -226.94173997 237.91823345 -222.47119141 233.49072266 C-218.7902331 229.83169113 -215.27841337 226.12268808 -211.93359375 222.15234375 C-208.49042913 218.31964939 -204.77185033 214.7535319 -201.11083984 211.13037109 C-198.15106268 208.18951128 -195.25288637 205.25602356 -192.5625 202.0625 C-188.49925535 197.25103638 -183.94173997 192.91823345 -179.47119141 188.49072266 C-175.7902331 184.83169113 -172.27841337 181.12268808 -168.93359375 177.15234375 C-165.49042913 173.31964939 -161.77185033 169.7535319 -158.11083984 166.13037109 C-155.15106268 163.18951128 -152.25288637 160.25602356 -149.5625 157.0625 C-145.49925535 152.25103638 -140.94173997 147.91823345 -136.47119141 143.49072266 C-132.7902331 139.83169113 -129.27841337 136.12268808 -125.93359375 132.15234375 C-122.49042913 128.31964939 -118.77185033 124.7535319 -115.11083984 121.13037109 C-112.15106268 118.18951128 -109.25288637 115.25602356 -106.5625 112.0625 C-102.49925535 107.25103638 -97.94173997 102.91823345 -93.47119141 98.49072266 C-89.7902331 94.83169113 -86.27841337 91.12268808 -82.93359375 87.15234375 C-79.49042913 83.31964939 -75.77185033 79.7535319 -72.11083984 76.13037109 C-69.15106268 73.18951128 -66.25288637 70.25602356 -63.5625 67.0625 C-59.49925535 62.25103638 -54.94173997 57.91823345 -50.47119141 53.49072266 C-46.7902331 49.83169113 -43.27841337 46.12268808 -39.93359375 42.15234375 C-36.49180952 38.32118595 -32.77482166 34.75642972 -29.11523438 31.13476562 C-25.54679397 27.58917542 -22.15982664 23.97779464 -18.9140625 20.1328125 C-15.64106618 16.48575946 -12.11929296 13.07974904 -8.61694336 9.65405273 C-6.14023519 7.21595611 -3.88121713 4.84850584 -1.73046875 2.10546875 C-0.87388672 1.06326172 -0.87388672 1.06326172 0 0 Z " fill="#006635" transform="translate(976,249)"/>
<path d="M0 0 C218.62417763 0 218.62417763 0 257.1875 36.75 C280.58895882 61.09965407 289.88021846 93.70942831 289.38891602 126.88476562 C289.06796488 140.4992233 288.42917186 154.01447341 284 167 C283.65775391 168.03012207 283.65775391 168.03012207 283.30859375 169.08105469 C277.9845184 184.95295267 271.34099616 198.44321866 260 211 C259.24074219 211.84175781 258.48148438 212.68351562 257.69921875 213.55078125 C235.03899278 237.39779484 201.20926502 249.80204819 168.71032238 251.09079742 C166.31729866 251.12164321 163.92615845 251.12390625 161.53295898 251.11352539 C160.16345014 251.11370619 160.16345014 251.11370619 158.76627445 251.11389065 C155.84285515 251.11315077 152.91950149 251.10556514 149.99609375 251.09765625 C148.17842642 251.09618396 146.36075866 251.09516502 144.54309082 251.09460449 C137.8412207 251.08938486 131.13935969 251.0754236 124.4375 251.0625 C109.443125 251.041875 94.44875 251.02125 79 251 C79 300.17 79 349.34 79 400 C52.93 400 26.86 400 0 400 C0 268 0 136 0 0 Z " fill="#FEFEFE" transform="translate(432,913)"/>
<path d="M0 0 C26.07 0 52.14 0 79 0 C79 53.79 79 107.58 79 163 C87.30389701 162.66307904 87.30389701 162.66307904 92.14233398 158.00219727 C92.54911377 157.44459717 92.95589355 156.88699707 93.375 156.3125 C93.83140869 155.73234131 94.28781738 155.15218262 94.75805664 154.55444336 C96.19515722 152.71961123 97.59727546 150.8611855 99 149 C100.35345215 147.25853568 101.71580154 145.52433987 103.0793457 143.79077148 C103.98851288 142.63384277 104.89458125 141.47447248 105.79760742 140.31274414 C109.62653867 135.40363119 113.64946364 130.68173049 117.72363281 125.97558594 C121.28095538 121.86061646 124.71905421 117.66912101 128.09375 113.40234375 C130.10094075 110.87278983 132.13965331 108.37174062 134.1875 105.875 C137.97169316 101.26076792 141.73891223 96.63308243 145.5 92 C150.65215205 85.654718 155.81948011 79.32215297 161 73 C162.50014281 71.16678352 164.00014082 69.33344854 165.5 67.5 C201.5 23.5 201.5 23.5 203.73828125 20.765625 C205.27903713 18.8815919 206.8180299 16.99611588 208.35546875 15.109375 C209.12503906 14.16578125 209.89460938 13.2221875 210.6875 12.25 C211.37199219 11.40953125 212.05648438 10.5690625 212.76171875 9.703125 C213.50035156 8.81109375 214.23898437 7.9190625 215 7 C215.29289413 6.41550583 215.58578827 5.83101166 215.88755798 5.22880554 C217.35834515 2.76704482 218.5567325 1.54704785 221 0 C227.0958238 -1.02122699 233.14186272 -0.8140715 239.3046875 -0.68359375 C241.11213257 -0.6705294 242.91960252 -0.66056918 244.7270813 -0.65357971 C249.47226028 -0.62691954 254.21592675 -0.5582159 258.96051025 -0.48065186 C263.80679871 -0.40889784 268.65333286 -0.37704233 273.5 -0.34179688 C283.00066264 -0.26684204 292.50020529 -0.1474536 302 0 C302.18419185 7.64869164 302.18419185 7.64869164 298.8125 11.4375 C298.08289062 12.28699219 297.35328125 13.13648438 296.6015625 14.01171875 C295.31378906 15.49091797 295.31378906 15.49091797 294 17 C291.87719971 19.56826566 289.78323262 22.15963008 287.6875 24.75 C287.12708008 25.43835938 286.56666016 26.12671875 285.98925781 26.8359375 C282.46582791 31.16686225 278.9949413 35.5342608 275.5625 39.9375 C270.34434478 46.62400871 264.95442011 53.16232084 259.55078125 59.69921875 C252.11597764 68.69453866 244.74146742 77.7363624 237.5625 86.9375 C232.34801416 93.61864949 226.9629583 100.15246302 221.5625 106.68359375 C214.00373823 115.8281242 206.53883794 125.05021597 199.14453125 134.328125 C196.90136271 137.12289236 194.6394877 139.90175056 192.37524414 142.67944336 C187.71844568 148.39249236 183.09361716 154.12414983 178.5625 159.9375 C173.71413971 166.15677596 168.71725684 172.2476158 163.68188477 178.31616211 C163.11655029 178.99815674 162.55121582 179.68015137 161.96875 180.3828125 C161.46794922 180.98496582 160.96714844 181.58711914 160.45117188 182.20751953 C158.91673636 184.10284685 157.45172035 186.04082465 156 188 C157.27484417 190.72746137 158.65529504 192.98315488 160.58203125 195.29296875 C161.35148071 196.22484009 161.35148071 196.22484009 162.13647461 197.17553711 C162.68956299 197.83948486 163.24265137 198.50343262 163.8125 199.1875 C168.4769716 204.85024781 173.01614865 210.58313343 177.4375 216.4375 C182.43459366 223.03866452 187.61460128 229.45998524 192.90332031 235.82910156 C198.39867805 242.45360036 203.71315932 249.20878968 209 256 C214.7646762 263.39055623 220.57558956 270.73658214 226.5 278 C232.88133442 285.82361366 239.12198695 293.75071535 245.33398438 301.70898438 C250.61304861 308.46772793 255.9435821 315.17536081 261.375 321.8125 C265.84159669 327.2729954 270.18067817 332.81213709 274.4375 338.4375 C279.43529277 345.03815846 284.61457422 351.45995264 289.90332031 357.82910156 C294.01718454 362.78824889 298.06248054 367.7921632 302.00366211 372.88989258 C304.31795864 375.8819443 306.67486469 378.81683974 309.125 381.69921875 C309.63716064 382.31450439 310.14932129 382.92979004 310.67700195 383.5637207 C311.65211441 384.73300458 312.641982 385.89021118 313.64916992 387.03198242 C317.41187008 391.60063046 317.18712256 394.38053208 317 400 C305.5343608 400.20884023 294.06917641 400.36860081 282.60202026 400.46630955 C277.27680119 400.51321406 271.95288638 400.57679548 266.62841797 400.67895508 C261.48655454 400.77698985 256.34594264 400.83060831 251.20321655 400.85389519 C249.24470317 400.87048202 247.28625577 400.90287491 245.32827759 400.95157051 C229.98974842 401.31775576 229.98974842 401.31775576 225.06916809 398.05899048 C223.03122314 395.79797319 221.5145237 393.63058127 220 391 C219.0847279 389.82404943 218.15468359 388.65915886 217.19921875 387.515625 C216.35964287 386.42888426 215.52241965 385.34032209 214.6875 384.25 C211.06136145 379.57258599 207.35129673 374.99375212 203.5 370.5 C199.71795589 366.08436776 196.06732224 361.59081228 192.5 357 C188.42605858 351.75802578 184.21979362 346.65567235 179.90966797 341.60668945 C176.5959129 337.72051545 173.3805778 333.77039748 170.20703125 329.76953125 C167.43126687 326.28631542 164.62308435 322.83014172 161.8125 319.375 C161.2570752 318.69203857 160.70165039 318.00907715 160.12939453 317.30541992 C158.98822213 315.90242221 157.8469451 314.49950959 156.70556641 313.09667969 C153.9688352 309.73237285 151.23451992 306.3661042 148.5 303 C147.42188107 301.67317215 146.34375605 300.34634925 145.265625 299.01953125 C143.04635939 296.28817878 140.8276805 293.55635104 138.609375 290.82421875 C133.91456241 285.04264398 129.21944093 279.26150727 124.5 273.5 C120.35093824 268.43481329 116.21960862 263.35537813 112.09350586 258.27148438 C109.23002233 254.74334556 106.36305881 251.21816388 103.48828125 247.69921875 C102.91432617 246.99563232 102.34037109 246.2920459 101.74902344 245.56713867 C100.66368147 244.23685633 99.57718481 242.9075148 98.48925781 241.5793457 C97.9887793 240.96534912 97.48830078 240.35135254 96.97265625 239.71875 C96.47652832 239.11804688 95.98040039 238.51734375 95.46923828 237.8984375 C94 236 94 236 92.60498047 233.7890625 C92.13592285 233.06460938 91.66686523 232.34015625 91.18359375 231.59375 C90.7858374 230.93052734 90.38808105 230.26730469 89.97827148 229.58398438 C87.24168224 227.10333861 87.24168224 227.10333861 79 227 C79 284.09 79 341.18 79 400 C52.93 400 26.86 400 0 400 C0 268 0 136 0 0 Z " fill="#FEFEFE" transform="translate(854,489)"/>
<path d="M0 0 C26.4 0 52.8 0 80 0 C80 132 80 264 80 400 C53.6 400 27.2 400 0 400 C0 268 0 136 0 0 Z " fill="#FBFDFC" transform="translate(1390,913)"/>
<path d="M0 0 C12.6225 -0.04125 25.245 -0.0825 38.25 -0.125 C42.21290039 -0.14320801 46.17580078 -0.16141602 50.25878906 -0.18017578 C55.15576172 -0.18920898 55.15576172 -0.18920898 57.45941162 -0.19088745 C59.04389576 -0.19392768 60.62837572 -0.20089633 62.21282959 -0.21115112 C82.75418286 -0.33727289 100.76814087 2.29837931 116.14453125 17.05859375 C121.28063183 22.40433109 124.55866843 28.0124432 127 35 C127.26111572 35.74330566 127.52223145 36.48661133 127.79125977 37.25244141 C130.12994368 44.67843687 130.4317242 51.855045 130.33618164 59.58007812 C130.31245016 61.62930401 130.31566277 63.6772324 130.32226562 65.7265625 C130.30759031 72.70588689 130.01268077 79.28622664 128 86 C127.71640625 86.9796875 127.4328125 87.959375 127.140625 88.96875 C124.90186683 95.33153637 122.17344596 100.69012274 118 106 C117.47148438 106.67804688 116.94296875 107.35609375 116.3984375 108.0546875 C112.33172978 112.65884558 107.71366346 115.53345412 102.3125 118.3125 C101.69004395 118.63806885 101.06758789 118.9636377 100.42626953 119.29907227 C88.10249684 125.27155319 75.37831462 125.41813814 62.01171875 125.29296875 C60.41654781 125.28854549 58.82137248 125.28549262 57.22619629 125.28381348 C51.37989682 125.26822859 45.53369119 125.2263455 39.6875 125.1875 C26.590625 125.125625 13.49375 125.06375 0 125 C0 83.75 0 42.5 0 0 Z " fill="#006635" transform="translate(511,976)"/>
</svg>
